<svg width="106" height="104" viewBox="0 0 106 104" fill="none" xmlns="http://www.w3.org/2000/svg">
<g clip-path="url(#clip0)">
<path d="M52.5733 103C81.0332 103 104.105 80.1665 104.105 52C104.105 23.8335 81.0332 1 52.5733 1C24.1133 1 1.04199 23.8335 1.04199 52C1.04199 80.1665 24.1133 103 52.5733 103Z" stroke="black" stroke-width="2"/>
<path d="M40.4482 67C52.167 67 61.667 57.598 61.667 46C61.667 34.402 52.167 25 40.4482 25C28.7295 25 19.2295 34.402 19.2295 46C19.2295 57.598 28.7295 67 40.4482 67Z" stroke="black" stroke-width="2"/>
<path d="M62.6772 81C74.396 81 83.896 71.598 83.896 60C83.896 48.402 74.396 39 62.6772 39C50.9585 39 41.4585 48.402 41.4585 60C41.4585 71.598 50.9585 81 62.6772 81Z" stroke="black" stroke-width="2"/>
</g>
<defs>
<clipPath id="clip0">
<rect width="105.083" height="104" fill="white" transform="translate(0.0314941)"/>
</clipPath>
</defs>
</svg>
