<svg width="106" height="104" viewBox="0 0 106 104" fill="none" xmlns="http://www.w3.org/2000/svg">
<g clip-path="url(#clip0)">
<path d="M52.5523 103C81.0122 103 104.084 80.1665 104.084 52C104.084 23.8335 81.0122 1 52.5523 1C24.0923 1 1.021 23.8335 1.021 52C1.021 80.1665 24.0923 103 52.5523 103Z" stroke="black" stroke-width="2"/>
<path d="M14.1567 46.0043C17.322 46.0477 18.9063 48.3067 20.7338 50.9212C22.7247 53.7698 24.9795 57 29.4407 57C33.9019 57 36.1567 53.7698 38.1511 50.9212C39.996 48.2806 41.5908 46 44.815 46C48.0428 46 49.6375 48.2806 51.4824 50.9212C53.4733 53.7698 55.7316 57 60.1928 57C64.654 57 66.9089 53.7698 68.9032 50.9212C70.7482 48.2806 72.3429 46 75.5706 46C78.7983 46 80.3931 48.2806 82.238 50.9212C84.2288 53.7698 86.4872 57 90.9484 57" stroke="black" stroke-width="2" stroke-miterlimit="10"/>
</g>
<defs>
<clipPath id="clip0">
<rect width="105.083" height="104" fill="white" transform="translate(0.0107422)"/>
</clipPath>
</defs>
</svg>
