<svg width="107" height="104" viewBox="0 0 107 104" fill="none" xmlns="http://www.w3.org/2000/svg">
<g clip-path="url(#clip0)">
<path d="M53.5313 103C81.9912 103 105.063 80.1665 105.063 52C105.063 23.8335 81.9912 1 53.5313 1C25.0713 1 2 23.8335 2 52C2 80.1665 25.0713 103 53.5313 103Z" stroke="black" stroke-width="2"/>
<path d="M27.2607 74V52.5088C27.2607 36.7638 38.7964 24 53.0264 24C67.2564 24 78.792 36.7638 78.792 52.5088V74" stroke="black" stroke-width="2"/>
<path d="M35.3438 74V51.386C35.3438 40.6794 43.2604 32 53.026 32C62.7917 32 70.7083 40.6794 70.7083 51.386V74" stroke="black" stroke-width="2"/>
<path d="M43.4272 73.5V51.0777C43.4272 44.9597 47.9511 40 53.5314 40C59.1117 40 63.6356 44.9597 63.6356 51.0777V73.5" stroke="black" stroke-width="2"/>
</g>
<defs>
<clipPath id="clip0">
<rect width="105.083" height="104" fill="white" transform="translate(0.989746)"/>
</clipPath>
</defs>
</svg>
