<svg width="107" height="104" viewBox="0 0 107 104" fill="none" xmlns="http://www.w3.org/2000/svg">
<g clip-path="url(#clip0)">
<path d="M53.5103 103C81.9702 103 105.042 80.1665 105.042 52C105.042 23.8335 81.9702 1 53.5103 1C25.0503 1 1.979 23.8335 1.979 52C1.979 80.1665 25.0503 103 53.5103 103Z" stroke="black" stroke-width="2"/>
<path d="M14.104 52.5787C41.6185 18.0627 81.2578 33.2499 92.9165 52.5787C76.128 77.9827 29.9598 81.5724 14.104 52.5787Z" stroke="black" stroke-width="2"/>
<path d="M53.005 64C59.4225 64 64.6248 58.8513 64.6248 52.5C64.6248 46.1487 59.4225 41 53.005 41C46.5876 41 41.3853 46.1487 41.3853 52.5C41.3853 58.8513 46.5876 64 53.005 64Z" stroke="black" stroke-width="2"/>
</g>
<defs>
<clipPath id="clip0">
<rect width="105.083" height="104" fill="white" transform="translate(0.96875)"/>
</clipPath>
</defs>
</svg>
