<svg width="1343" height="139" viewBox="0 0 1343 139" fill="none" xmlns="http://www.w3.org/2000/svg">
<path d="M1.64453 69.1743C1.0725 107.994 29.6739 138.671 66.4744 138.103C93.7411 138.103 109.567 126.741 123.296 103.828L111.283 95.1169C100.796 114.811 86.6861 123.9 66.8558 123.9C38.6357 124.468 17.0893 100.04 17.6613 69.1743C17.6613 37.9295 40.1611 14.4485 67.0464 14.4485C86.3047 14.4485 100.033 22.9699 110.711 43.2316L123.296 34.3316C113.571 13.3124 93.1691 0.246367 67.4278 0.246367C32.1527 -0.511083 0.881822 30.7337 1.64453 69.1743Z" fill="black"/>
<path d="M143.316 135.451H159.333V78.0743H189.841L222.637 135.451H240.37L207.383 76.9381C227.785 72.3934 239.417 58.9487 239.417 39.8231C239.417 18.4251 223.019 2.89743 196.515 2.89743H143.316V135.451ZM159.333 64.2508V16.7209H194.608C213.103 16.7209 223.4 24.6741 223.4 40.5805C223.4 56.2976 213.103 64.2508 194.608 64.2508H159.333Z" fill="black"/>
<path d="M287.199 135.451H303.216V81.2934L346.881 2.89743H329.529L299.403 58.7593C297.877 61.5998 296.542 64.6296 295.208 67.8487C293.873 64.6296 292.538 61.5998 291.013 58.7593L260.886 2.89743H243.534L287.199 81.2934V135.451Z" fill="black"/>
<path d="M347.478 97.0105C349.956 109.13 355.867 118.977 365.02 126.741C374.172 134.315 385.994 138.103 400.676 138.103C429.468 138.103 449.299 120.871 449.299 98.3361C449.299 77.8849 434.426 65.5764 406.015 60.2742C381.418 55.5402 369.215 48.155 369.215 34.7103C369.215 21.8337 381.227 14.0698 398.007 14.0698C415.358 14.0698 428.134 23.1592 434.045 40.0125L446.629 32.6273C439.765 12.3656 421.841 0.246368 398.197 0.246368C372.456 0.246368 353.77 14.4486 353.77 34.8997C353.77 54.7827 368.261 67.47 397.435 72.7721C421.079 77.1275 433.282 84.8913 433.282 99.4722C433.282 112.728 420.507 124.279 400.486 124.279C379.13 124.279 366.354 111.781 361.778 89.6254L347.478 97.0105Z" fill="black"/>
<path d="M496.909 135.451H512.925V17.0996H554.112V2.89743H455.723V17.0996H496.909V135.451Z" fill="black"/>
<path d="M543.955 135.451H560.925L576.179 96.4424H634.908L650.162 135.451H667.132L613.743 2.89743H597.344L543.955 135.451ZM581.518 82.8083L601.921 30.5443C603.255 27.3252 604.59 24.106 605.543 20.5081C606.497 24.106 607.832 27.3252 609.166 30.5443L629.569 82.8083H581.518Z" fill="black"/>
<path d="M679.878 135.451H763.776V121.249H695.895V2.89743H679.878V135.451Z" fill="black"/>
<path d="M773.599 97.0105C776.078 109.13 781.989 118.977 791.141 126.741C800.294 134.315 812.116 138.103 826.798 138.103C855.59 138.103 875.42 120.871 875.42 98.3361C875.42 77.8849 860.547 65.5764 832.137 60.2742C807.539 55.5402 795.336 48.155 795.336 34.7103C795.336 21.8337 807.349 14.0698 824.128 14.0698C841.48 14.0698 854.255 23.1592 860.166 40.0125L872.751 32.6273C865.886 12.3656 847.963 0.246368 824.319 0.246368C798.578 0.246368 779.891 14.4486 779.891 34.8997C779.891 54.7827 794.383 67.47 823.556 72.7721C847.2 77.1275 859.403 84.8913 859.403 99.4722C859.403 112.728 846.628 124.279 826.607 124.279C805.251 124.279 792.476 111.781 787.9 89.6254L773.599 97.0105Z" fill="black"/>
<path d="M886.997 135.451H905.683V116.705H886.997V135.451Z" fill="black"/>
<path d="M922.618 69.1743C922.046 107.994 950.647 138.671 987.448 138.103C1014.71 138.103 1030.54 126.741 1044.26 103.828L1032.26 95.1169C1021.77 114.811 1007.66 123.9 987.829 123.9C959.609 124.468 938.062 100.04 938.634 69.1743C938.634 37.9295 961.134 14.4485 988.02 14.4485C1007.28 14.4485 1021.01 22.9699 1031.69 43.2316L1044.26 34.3316C1034.55 13.3124 1014.14 0.246367 988.401 0.246367C953.126 -0.511083 921.855 30.7337 922.618 69.1743Z" fill="black"/>
<path d="M1060.06 69.1743C1059.49 109.509 1088.66 138.481 1124.69 138.103C1160.74 138.481 1189.91 109.509 1189.34 69.1743C1189.91 28.8401 1160.74 -0.132344 1124.69 0.246376C1088.66 -0.132344 1059.49 28.8401 1060.06 69.1743ZM1173.32 69.1743C1173.32 101.934 1152.73 123.9 1124.69 123.9C1096.67 123.9 1076.07 101.934 1076.07 69.1743C1076.07 36.4146 1096.67 14.4486 1124.69 14.4486C1152.73 14.4486 1173.32 36.4146 1173.32 69.1743Z" fill="black"/>
<path d="M1210.85 135.451H1226.49V33.3848L1229.54 42.8529C1231.07 47.0189 1232.21 50.238 1233.17 52.321L1268.06 135.451H1284.65L1319.54 52.1316C1321.25 48.155 1324.3 39.6337 1326.4 33.3848V135.451H1341.85V2.89743H1324.3L1276.44 120.492L1228.4 2.89743H1210.85V135.451Z" fill="black"/>
</svg>
